<svg
    version="1.0"
    xmlns="http://www.w3.org/2000/svg"
    xmlns:xlink="http://www.w3.org/1999/xlink"
    width="512"
    height="512"
    viewBox="0 0 512 512"
  >
    <svg id="global-svg-defs" version="1.0" xmlns="http://www.w3.org/2000/svg" width="0" height="0" viewBox="0 0 340.000000 250.000000" preserveAspectRatio="xMidYMid meet" color-interpolation-filters="sRGB" class="el-tooltip" style="margin: auto;" xmlns:xlink="http://www.w3.org/1999/xlink">
    <defs>
      <pattern id="watermark" patternUnits="userSpaceOnUse" width="100%" height="100%">
        <image xlink:href="https://www.logosc.cn/img/watermark/LOGOSC-watermark.png" x="0" y="0" width="100%" height="100%">
        </image>
      </pattern>
                    <linearGradient id="92" x1="0%" y1="0%" x2="100%" y2="0%">
          <stop offset="0%" stop-color="#fa71cd"></stop>
          <stop offset="100%" stop-color="#9b59b6"></stop>
        </linearGradient>
              <linearGradient id="93" x1="0%" y1="0%" x2="100%" y2="0%">
          <stop offset="0%" stop-color="#f9d423"></stop>
          <stop offset="100%" stop-color="#f83600"></stop>
        </linearGradient>
              <linearGradient id="94" x1="0%" y1="0%" x2="100%" y2="0%">
          <stop offset="0%" stop-color="#0064d2"></stop>
          <stop offset="100%" stop-color="#1cb0f6"></stop>
        </linearGradient>
              <linearGradient id="95" x1="0%" y1="0%" x2="100%" y2="0%">
          <stop offset="0%" stop-color="#f00978"></stop>
          <stop offset="100%" stop-color="#3f51b1"></stop>
        </linearGradient>
              <linearGradient id="96" x1="0%" y1="0%" x2="100%" y2="0%">
          <stop offset="0%" stop-color="#7873f5"></stop>
          <stop offset="100%" stop-color="#ec77ab"></stop>
        </linearGradient>
              <linearGradient id="97" x1="0%" y1="0%" x2="100%" y2="0%">
          <stop offset="0%" stop-color="#f9d423"></stop>
          <stop offset="100%" stop-color="#e14fad"></stop>
        </linearGradient>
              <linearGradient id="98" x1="0%" y1="0%" x2="100%" y2="0%">
          <stop offset="0%" stop-color="#009efd"></stop>
          <stop offset="100%" stop-color="#2af598"></stop>
        </linearGradient>
              <linearGradient id="99" x1="0%" y1="0%" x2="100%" y2="0%">
          <stop offset="0%" stop-color="#ffcc00"></stop>
          <stop offset="100%" stop-color="#00b140"></stop>
        </linearGradient>
              <linearGradient id="100" x1="0%" y1="0%" x2="100%" y2="0%">
          <stop offset="0%" stop-color="#d51007"></stop>
          <stop offset="100%" stop-color="#ff8177"></stop>
        </linearGradient>
              <linearGradient id="102" x1="0%" y1="0%" x2="100%" y2="0%">
          <stop offset="0%" stop-color="#a2b6df"></stop>
          <stop offset="100%" stop-color="#0c3483"></stop>
        </linearGradient>
              <linearGradient id="103" x1="0%" y1="0%" x2="100%" y2="0%">
          <stop offset="0%" stop-color="#7ac5d8"></stop>
          <stop offset="100%" stop-color="#eea2a2"></stop>
        </linearGradient>
              <linearGradient id="104" x1="0%" y1="0%" x2="100%" y2="0%">
          <stop offset="0%" stop-color="#00ecbc"></stop>
          <stop offset="100%" stop-color="#007adf"></stop>
        </linearGradient>
              <linearGradient id="105" x1="0%" y1="0%" x2="100%" y2="0%">
          <stop offset="0%" stop-color="#b88746"></stop>
          <stop offset="100%" stop-color="#fdf5a6"></stop>
        </linearGradient>
              <linearGradient id="107" x1="0%" y1="0%" x2="100%" y2="0%">
          <stop offset="0%" stop-color="#ffbf00"></stop>
          <stop offset="100%" stop-color="#26b5f8"></stop>
        </linearGradient>
          </defs>
  </svg>
    <rect
      x="0"
      y="0"
      width="100%"
      height="100%"
      fill="transparent"
      fill-opacity="1"
    ></rect>
    <svg data-v-0dd9719b="" version="1.0" xmlns="http://www.w3.org/2000/svg" xmlns:xlink="http://www.w3.org/1999/xlink" width="100%" height="100%" viewBox="0 0 100 100" preserveAspectRatio="xMidYMid meet" color-interpolation-filters="sRGB" style="margin: auto;"> <rect data-v-0dd9719b="" x="0" y="0" width="100%" height="100%" fill="#ffffff" fill-opacity="1" class="background" style="display: none;"/> <rect data-v-0dd9719b="" x="0" y="0" width="100%" height="100%" fill="url(#watermark)" fill-opacity="1" class="watermarklayer" style="display: none;"/> <g data-v-0dd9719b="" fill="#333" class="iconsvg-imagesvg"><rect fill="#333" fill-opacity="0" stroke-width="2" x="0" y="0" width="100" height="100" class="image-rect"/> <svg viewBox="0 0 60 60" x="0" y="0" width="100" height="100" class="image-svg-svg bn" style="overflow: visible;"><g hollow-target="iconBnFill" mask="url(#63b243f9-2a1f-4d3e-b644-99cc3b566757)"><g><svg viewBox="0 0 100 100" xmlns="http://www.w3.org/2000/svg" style="overflow: visible;" width="60" height="60" x="0" y="0" filtersec="colorsb5317010951" filter="url(#caNKaAawAJUqYKp8Hp9Pt)"><g transform="scale(1, 1) skewX(0)"><path d="M30 0h70v70c0 16.569-13.431 30-30 30H0V30C0 13.431 13.431 0 30 0z" fill="#333" fill-rule="evenodd"/></g><defs><filter id="caNKaAawAJUqYKp8Hp9Pt"><feColorMatrix type="matrix" values="0 0 0 0 0.19921875  0 0 0 0 0.19921875  0 0 0 0 0.19921875  0 0 0 1 0"/></filter></defs></svg></g> <g filter="url(#colors4700319578)"><svg xmlns="http://www.w3.org/2000/svg" xmlns:xlink="http://www.w3.org/1999/xlink" viewBox="0 0 58.608000000000004 63.360000000000014" width="45" height="45" x="7.5" y="7.5" class="image-svg-letter"><path transform="translate(-6.696000000000001 53.28000000000001)" d="M34.13-22.75L52.63-24.26L60.19-20.16L58.97 8.93L52.49 9.86L52.49 9.14L27.29 9.36L27.29 9.65L20.52 10.08L19.87-19.01L8.78-16.06L6.70-23.11L34.99-29.88L37.30-31.61L33.84-31.32L33.19-53.28L41.04-52.34L40.46-33.91L50.33-41.18L54.72-35.78L39.38-24.12L34.13-22.75ZM65.30-35.86L60.05-31.25L49.54-43.42L54.00-47.38L65.30-35.86ZM26.57-42.84L15.41-29.88L9.58-35.06L21.53-47.16L26.57-42.84ZM27.22 4.25L52.49 3.67L52.63-17.35L27.14-16.85L27.14-12.82L49.54-13.82L49.25-8.14L27.14-7.78L27.22-4.54L49.54-5.47L49.25 0.14L27.22 0.65L27.22 4.25Z"/></svg></g></g><mask id="63b243f9-2a1f-4d3e-b644-99cc3b566757"><g fill="white"><svg viewBox="0 0 100 100" xmlns="http://www.w3.org/2000/svg" style="overflow: visible;" width="60" height="60" x="0" y="0" filtersec="colorsb5317010951"><g transform="scale(1, 1) skewX(0)"><path d="M30 0h70v70c0 16.569-13.431 30-30 30H0V30C0 13.431 13.431 0 30 0z" fill-rule="evenodd"/></g><defs/></svg></g> <g fill="black"><svg xmlns="http://www.w3.org/2000/svg" xmlns:xlink="http://www.w3.org/1999/xlink" viewBox="0 0 58.608000000000004 63.360000000000014" width="45" height="45" x="7.5" y="7.5" class="image-svg-letter"><path transform="translate(-6.696000000000001 53.28000000000001)" d="M34.13-22.75L52.63-24.26L60.19-20.16L58.97 8.93L52.49 9.86L52.49 9.14L27.29 9.36L27.29 9.65L20.52 10.08L19.87-19.01L8.78-16.06L6.70-23.11L34.99-29.88L37.30-31.61L33.84-31.32L33.19-53.28L41.04-52.34L40.46-33.91L50.33-41.18L54.72-35.78L39.38-24.12L34.13-22.75ZM65.30-35.86L60.05-31.25L49.54-43.42L54.00-47.38L65.30-35.86ZM26.57-42.84L15.41-29.88L9.58-35.06L21.53-47.16L26.57-42.84ZM27.22 4.25L52.49 3.67L52.63-17.35L27.14-16.85L27.14-12.82L49.54-13.82L49.25-8.14L27.14-7.78L27.22-4.54L49.54-5.47L49.25 0.14L27.22 0.65L27.22 4.25Z"/></svg></g></mask></svg> <defs><filter id="colors4700319578"><feColorMatrix type="matrix" values="0 0 0 0 0.19921875  0 0 0 0 0.19921875  0 0 0 0 0.19921875  0 0 0 1 0" class="icon-fecolormatrix"/></filter> <filter id="colorsf9966755982"><feColorMatrix type="matrix" values="0 0 0 0 0.99609375  0 0 0 0 0.99609375  0 0 0 0 0.99609375  0 0 0 1 0" class="icon-fecolormatrix"/></filter> <filter id="colorsb5317010951"><feColorMatrix type="matrix" values="0 0 0 0 0  0 0 0 0 0  0 0 0 0 0  0 0 0 1 0" class="icon-fecolormatrix"/></filter></defs></g><defs v-gra="od"/></svg>
  </svg>